
<svg xmlns="http://www.w3.org/2000/svg" width="101.0" height="110.0" viewBox="0 0 101.0 110.0">
  <defs>
    <linearGradient id="diamond_container" x1="103.97" y1="62.55" x2="-9.26" y2="62.55" gradientUnits="userSpaceOnUse">
      <stop offset="0.08" stop-color="#faf5a4" stop-opacity="1" />
      <stop offset="0.33" stop-color="#feb0fe" stop-opacity="1" />
      <stop offset="0.58" stop-color="#abb3fc" stop-opacity="1" />
      <stop offset="0.85" stop-color="#41f3e7" stop-opacity="1" />
    </linearGradient>
    <linearGradient id="diamond_container_lip" x1="103.44" y1="66.55" x2="-9.79" y2="66.55" gradientUnits="userSpaceOnUse">
      <stop offset="0.08" stop-color="#ece68e" stop-opacity="1" />
      <stop offset="0.33" stop-color="#f198f1" stop-opacity="1" />
      <stop offset="0.58" stop-color="#8a94f0" stop-opacity="1" />
      <stop offset="0.85" stop-color="#2fe7da" stop-opacity="1" />
    </linearGradient>
  </defs>
  <path stroke="url(#diamond_container_lip)" d="M39.59,25.75C29.68,32.73 21.03,41.37 14.05,51.29C9.45,57.85 9.45,66.72 14.05,73.28C21.03,83.19 29.68,91.87 39.63,98.85C46.18,103.45 55.02,103.45 61.58,98.85C71.5,91.87 80.17,83.23 87.15,73.28C91.75,66.72 91.75,57.88 87.15,51.32C80.17,41.41 71.53,32.73 61.58,25.75C55.02,21.15 46.18,21.15 39.63,25.75H39.59Z" stroke-width="4.5" stroke-linecap="round" stroke-linejoin="round"/>
  <path fill="url(#diamond_container)" stroke="url(#diamond_container)" d="M39.59,21.75C29.68,28.73 21.03,37.38 14.05,47.29C9.45,53.85 9.45,62.72 14.05,69.28C21.03,79.19 29.68,87.87 39.63,94.85C46.18,99.45 55.02,99.45 61.58,94.85C71.5,87.87 80.17,79.23 87.15,69.28C91.75,62.72 91.75,53.88 87.15,47.32C80.17,37.41 71.53,28.73 61.58,21.75C55.02,17.15 46.18,17.15 39.63,21.75H39.59Z" stroke-width="4.5" stroke-linecap="round" stroke-linejoin="round"/>  
  <path d="M41.19,23.63C46.97,19.57 54.78,19.57 60.56,23.63C70.29,30.46 78.75,38.95 85.58,48.65C89.64,54.44 89.64,62.24 85.58,68.02C78.75,77.75 70.26,86.21 60.55,93.05C54.77,97.1 46.97,97.1 41.19,93.04C31.46,86.22 23,77.73 16.16,68.02C12.11,62.24 12.11,54.4 16.16,48.62C22.94,38.99 31.33,30.58 40.95,23.78C41.03,23.73 41.11,23.68 41.19,23.63Z" fill="#FFFBE8"/>
  
  <path d="M78.8,76.66C73.39,82.84 67.26,88.35 60.54,93.08C57.67,95.09 54.3,96.1 50.93,96.12C47.75,96.11 44.56,95.21 41.79,93.41C40.16,91.62 38.79,89.3 37.68,86.43C37.16,85.07 36.62,83.72 36.07,82.35C32.76,74.13 29.15,65.14 27.54,48.88C26.37,37.12 34.95,26.64 46.71,25.48C58.46,24.31 68.94,32.89 70.11,44.65C71.11,54.68 72.68,58.64 75.64,66.05C76.23,67.55 76.89,69.19 77.6,71.05C78.4,73.11 78.78,74.96 78.8,76.66Z" fill="#ffa800ff"/>
  <path d="M21.81,59.57C16.76,53.89 11.77,46.92 8.89,40.04L17.33,36.5C19.68,42.12 23.98,48.23 28.65,53.49C33.37,58.8 38.07,62.81 40.95,64.47L36.39,72.4C32.28,70.04 26.82,65.22 21.81,59.57Z" fill="#e8d1c1ff"/>
  <path d="M6.46,54.05H16.6L18.58,64.2C18.98,66.24 18.65,68.36 17.66,70.2L15.73,73.75H7.33L5.4,70.2C4.41,68.36 4.08,66.24 4.48,64.2L6.46,54.05Z" fill="#ffd900ff"/>
  <path d="M1.94,57.76C2.38,55.27 4.53,53.46 7.06,53.46H16C18.52,53.46 20.68,55.27 21.11,57.76L22.96,68.34C23.63,72.13 20.7,75.61 16.85,75.61H6.21C2.35,75.61 -0.57,72.13 0.09,68.34L1.94,57.76ZM7.06,55.71C5.63,55.71 4.4,56.74 4.16,58.15L2.31,68.72C1.88,71.15 3.75,73.37 6.21,73.37H16.85C19.31,73.37 21.17,71.15 20.75,68.72L18.9,58.15C18.65,56.74 17.43,55.71 16,55.71H7.06Z" fill="#cd7900ff"/>
  <path d="M5.48,73.02C5.56,72.59 5.93,72.27 6.37,72.27H16.69C17.13,72.27 17.5,72.59 17.57,73.02L18.49,78.23C18.58,78.78 18.16,79.29 17.6,79.29H5.46C4.9,79.29 4.47,78.78 4.57,78.23L5.48,73.02Z" fill="#cd7900ff"/>
  <path d="M26.23,64.47a11.33,15.37 0,1 0,22.66 0a11.33,15.37 0,1 0,-22.66 0z" fill="#4b4b4bff"/>
  <path d="M26.23,64.47a11.33,15.37 0,1 0,22.66 0a11.33,15.37 0,1 0,-22.66 0z" fill="#a56644ff"/>
  <path d="M50.43,39.27L74.52,37.32A5.09,5.09 130.37,0 1,80 41.98L81.95,66.17A5.09,5.09 130.37,0 1,77.29 71.65L53.21,73.6A5.09,5.09 130.37,0 1,47.73 68.94L45.77,44.74A5.09,5.09 130.37,0 1,50.43 39.27z" fill="#c2632dff"/>
  <path d="M45.34,39.51C45.25,38.39 46.08,37.41 47.2,37.32L74.32,34.97C78.82,34.58 82.93,37.54 84,41.92L85.74,49.07C86.04,50.3 85.16,51.5 83.9,51.58L48.52,53.93C47.41,54 46.45,53.17 46.36,52.06L45.34,39.51Z" fill="#a56644ff"/>
  <path d="M70.8,43.1C70.56,40.17 72.88,37.65 75.82,37.65V37.65C78.15,37.65 80.17,39.25 80.72,41.51L83.2,51.83L83.83,58.01L84.64,61.91C85.6,66.61 82.3,71.12 77.52,71.61V71.61C75.12,71.86 72.98,70.08 72.78,67.67L70.8,43.1Z" fill="#a56644ff"/>
  <path d="M83.16,51.63C83.82,51.62 84.17,51.59 84.63,51.41L82.42,42.72C81.89,40.19 79.92,38.27 77.5,38.27C74.43,38.27 72.24,41.28 72.46,44.53L74.09,67.72L75.61,67.62L73.98,44.42C73.8,41.8 75.56,39.79 77.5,39.79C79.04,39.79 80.52,41.05 80.93,43.04L80.93,43.06L80.94,43.08L83.16,51.63Z" fill="#7d4729ff"/>
  <path d="M24.97,36.06C25.15,41.55 29.75,45.85 35.23,45.67C40.72,45.49 45.02,40.9 44.84,35.41C44.67,29.93 40.07,25.62 34.58,25.8C29.1,25.98 24.79,30.58 24.97,36.06Z" fill="#3d3d3dff"/>
  <path d="M78.8,76.66C73.39,82.84 67.26,88.35 60.54,93.08C57.67,95.09 54.31,96.1 50.95,96.12C47.76,96.11 44.56,95.21 41.79,93.41C40.16,91.62 38.79,89.3 37.68,86.43C37.16,85.07 36.62,83.72 36.07,82.35C32.76,74.13 29.15,65.14 27.54,48.88C26.37,37.12 34.95,26.64 46.71,25.48C58.46,24.31 68.94,32.89 70.11,44.65C71.11,54.68 72.68,58.64 75.64,66.05C76.23,67.55 76.89,69.19 77.6,71.05C78.4,73.11 78.78,74.96 78.8,76.66Z" fill="#db8d74ff"/>
  <path d="M50.4,23.8L52.76,32.43C54.31,38.83 57.6,41.55 62.23,41.24C64.01,41.12 65.62,40.36 66.9,39.17C64.38,31.97 56.8,25.91 50.4,23.8Z" fill="#3d3d3dff"/>
  <path d="M47.85,38.49C47.69,36.09 45.61,34.27 43.2,34.43C40.8,34.59 38.98,36.67 39.14,39.08L39.29,41.33C39.45,43.74 41.53,45.56 43.94,45.4C46.34,45.23 48.16,43.15 48,40.75L47.85,38.49Z" fill="#ffffffff"/>
  <path d="M37.2,39.19C37.06,36.79 35.34,34.97 33.34,35.13C31.35,35.29 29.84,37.37 29.98,39.78L30.1,42.04C30.24,44.44 31.96,46.26 33.95,46.1C35.95,45.94 37.45,43.86 37.32,41.45L37.2,39.19Z" fill="#ffffffff"/>
  <path d="M46.79,39.59C46.72,38.57 45.83,37.79 44.81,37.86C43.79,37.93 43.01,38.81 43.08,39.84L43.12,40.48C43.19,41.51 44.08,42.28 45.1,42.21C46.13,42.14 46.9,41.26 46.83,40.23L46.79,39.59Z" fill="#3d3d3dff"/>
  <path d="M36.58,40.32C36.53,39.3 35.79,38.52 34.94,38.59C34.09,38.66 33.45,39.55 33.51,40.57L33.54,41.22C33.6,42.24 34.34,43.01 35.19,42.95C36.03,42.88 36.68,41.99 36.62,40.97L36.58,40.32Z" fill="#3d3d3dff"/>
  <path d="M50.67,33.69L32.07,35.03C31.23,35.09 30.51,35.66 30.27,36.47L28.82,41.31L51.08,39.82L50.67,33.69Z" fill="#db8d74ff"/>
  <path d="M38.26,54.61C38.28,54.61 38.3,54.61 38.32,54.61C38.56,54.62 38.97,54.72 39.5,54.98L43.9,57.15C46.42,58.4 49.47,57.36 50.71,54.85C51.96,52.33 50.92,49.28 48.41,48.03L44,45.86C41.35,44.55 36.9,43.4 32.87,45.98C31.58,46.81 30.49,47.78 29.68,48.76C29.27,49.24 28.88,49.8 28.55,50.41C28.3,50.89 27.78,51.97 27.78,53.35C27.78,56.16 30.06,58.44 32.87,58.44C35.06,58.44 36.92,57.05 37.64,55.11C37.78,54.97 37.99,54.79 38.26,54.61Z" fill="#3d3d3dff"/>
  <path d="M78.79,76.68C73.39,82.84 67.26,88.35 60.54,93.08C55.5,96.61 48.94,97.06 43.51,94.45C42.91,94.15 42.33,93.83 41.77,93.46C40.14,91.62 38.77,89.3 37.68,86.49C37.16,85.13 36.62,83.78 36.07,82.42C35.06,79.9 34.02,77.32 33.02,74.47L41.24,80.67L67.01,75.36L75.94,66.86C76.45,68.15 77.01,69.56 77.61,71.11C78.44,73.39 78.8,75.16 78.79,76.68Z" fill="#a56644ff"/>
  <path d="M34.39,45.7C34.49,47.22 35.8,48.36 37.32,48.26C38.83,48.16 39.98,46.85 39.88,45.34C39.77,43.82 38.46,42.68 36.95,42.78C35.44,42.88 34.29,44.19 34.39,45.7Z" fill="#db8d74ff"/>
  <path d="M33.72,57.96C33.26,57.14 33.53,56.12 34.31,55.68L36.8,54.29C37.59,53.85 38.6,54.17 39.06,54.99C39.51,55.81 39.25,56.83 38.46,57.27L35.97,58.66C35.19,59.1 34.18,58.78 33.72,57.96Z" fill="#db8d74ff"/>
  <path d="M33.91,53L33.91,53A1.76,1.76 125.94,0 1,36.36 52.63L39.81,55.18A1.76,1.76 125.94,0 1,40.18 57.64L40.18,57.64A1.76,1.76 125.94,0 1,37.72 58.01L34.27,55.46A1.76,1.76 125.94,0 1,33.91 53z" fill="#db8d74ff"/>
  <path d="M37.68,55C37.55,54.74 37.24,54.64 36.98,54.77C36.02,55.27 35.71,55.27 35.51,55.22C35.23,55.15 34.95,55.31 34.88,55.59C34.8,55.87 34.97,56.15 35.25,56.23C35.86,56.39 36.49,56.2 37.46,55.7C37.71,55.57 37.82,55.26 37.68,55Z" fill="#c46445ff"/>
  <path d="M37.97,35.37C38.73,34.55 40.02,34.5 40.84,35.27L41.08,35.49C41.29,35.69 41.57,35.78 41.86,35.76L45.32,35.47C46.44,35.38 47.42,36.21 47.51,37.33C47.61,38.45 46.78,39.43 45.66,39.53L42.19,39.81C40.76,39.93 39.35,39.44 38.3,38.46L38.06,38.24C37.24,37.48 37.2,36.19 37.97,35.37Z" fill="#3d3d3dff"/>
  <path d="M32.88,32.5L33.41,32.5C34.53,32.5 35.44,33.41 35.44,34.53C35.44,35.66 34.53,36.57 33.41,36.57H31.43C30.67,36.57 29.97,36.93 29.52,37.53C30.4,35.7 31.53,34 32.88,32.5Z" fill="#3d3d3dff"/>
  <path d="M76.03,67.35C75.98,67.05 75.85,66.62 75.73,66.27L75.64,66.05C74.35,62.81 73.32,60.24 72.49,57.52C71.91,55.62 68.26,54.75 66.69,55.97C61.45,60.06 53.01,64.11 47.8,65.22C46.35,65.54 45.09,66.51 44.56,67.9L40.74,77.86C38.4,75.05 36,70.07 34.8,67.42C34.29,66.3 33.28,65.51 32.25,64.84C30.72,63.85 29.75,62.3 29.21,60.45C29.22,60.5 29.23,60.56 29.24,60.61C29.24,60.58 29.23,60.55 29.23,60.52C29.2,60.6 29.19,60.68 29.19,60.77C29.05,63.63 29.26,65.47 29.82,69.21C29.92,69.83 30.76,70.08 31.2,69.63L31.38,69.36C31.99,71.41 32.62,73.32 33.27,75.12L33.28,75.13C33.29,75.16 33.3,75.18 33.3,75.21C33.44,75.59 33.58,75.97 33.72,76.35C36.26,82.3 43.74,85.71 54.77,83.69C66.54,81.52 77.3,74.21 76.03,67.35Z" fill="#f1e6d9ff"/>
  <path d="M76.47,68.14C76.5,72.42 73.59,76.35 69.81,79.35C65.49,82.78 59.51,85.47 53.3,86.7C46.95,87.96 39.18,86.96 36.86,84.37C36.47,83.35 36.48,83.38 36.07,82.35C35.28,80.4 34.48,78.4 33.69,76.27C35.87,81.33 42.12,84.77 52.51,82.71C58.16,81.59 63.53,79.15 67.28,76.17C71.13,73.11 72.77,69.93 72.33,67.34L75.91,66.72C76.09,67.18 76.28,67.65 76.47,68.14Z" fill="#3d3d3dff"/>
  <path d="M12.23,36.49m-7.34,0a7.34,7.34 0,1 1,14.69 0a7.34,7.34 0,1 1,-14.69 0" fill="#db8d74ff"/>
  <path d="M3.67,43.39C3.67,39.6 6.74,36.52 10.54,36.52H12.52C16.32,36.52 19.39,39.6 19.39,43.39C19.39,47.19 16.32,50.26 12.52,50.26H10.54C6.74,50.26 3.67,47.19 3.67,43.39ZM10.54,38.77C7.99,38.77 5.92,40.84 5.92,43.39C5.92,45.95 7.99,48.02 10.54,48.02H12.52C15.08,48.02 17.15,45.95 17.15,43.39C17.15,40.84 15.08,38.77 12.52,38.77H10.54Z" fill="#cd7900ff"/>
  <path d="M5.04,37.18a3.59,3.62 0,1 0,7.19 0a3.59,3.62 0,1 0,-7.19 0z" fill="#db8d74ff"/>
  <path d="M7.49,35.45a4.56,4.59 0,1 0,9.12 0a4.56,4.59 0,1 0,-9.12 0z" fill="#db8d74ff"/>
  <path d="M5,37.8C5,37.81 5.01,37.82 5.01,37.83L5.01,37.84C5.02,37.85 5.03,37.87 5.04,37.9C5.07,37.95 5.11,38.04 5.17,38.14C5.29,38.35 5.48,38.63 5.76,38.91C6.31,39.46 7.19,40.03 8.6,40.03C9.77,40.03 10.65,39.35 11.39,38.34C11.59,38.07 11.96,37.96 12.28,38.08C13.27,38.46 13.85,38.42 14.19,38.28C14.52,38.14 14.78,37.86 14.98,37.4C15.18,36.93 15.29,36.37 15.38,35.82C15.39,35.71 15.41,35.59 15.43,35.46C15.45,35.32 15.47,35.17 15.49,35.06C15.52,34.85 15.57,34.59 15.65,34.37C15.82,33.98 16.26,33.8 16.65,33.96C17.04,34.13 17.22,34.57 17.06,34.96C17.06,34.96 17.06,34.96 17.06,34.96C17.06,34.96 17.05,34.99 17.04,35.05C17.02,35.11 17.01,35.2 16.99,35.3C16.97,35.42 16.96,35.53 16.94,35.65C16.93,35.77 16.91,35.89 16.88,36.05C16.8,36.62 16.66,37.35 16.37,38.01C16.08,38.68 15.59,39.35 14.76,39.69C14.06,39.98 13.23,39.97 12.27,39.69C11.42,40.7 10.23,41.56 8.6,41.56C7.84,41.56 7.18,41.43 6.61,41.22C5.8,40.26 5.23,39.09 5,37.8Z" fill="#c46445ff"/>
  <path d="M10.7,32.82C11.12,32.91 11.38,33.32 11.29,33.73C11.04,34.84 11.12,35.9 11.43,36.68C11.73,37.44 12.23,37.88 12.83,37.97C13.25,38.04 13.53,38.43 13.47,38.85C13.4,39.26 13.01,39.55 12.59,39.48C11.31,39.28 10.45,38.36 10.01,37.24C9.57,36.13 9.5,34.75 9.8,33.41C9.89,32.99 10.29,32.73 10.7,32.82Z" fill="#c46445ff"/>
  <path d="M15.41,38.4L15.93,36.96C14.03,36.23 11.69,37.03 10.64,38.84C9.71,40.46 9.98,42.44 11.17,43.76C11.52,43.81 11.87,43.84 12.23,43.84C12.85,43.84 13.45,43.76 14.02,43.62C13.66,43.58 13.3,43.46 12.96,43.27C11.67,42.52 11.23,40.88 11.96,39.61C12.63,38.45 14.19,37.91 15.41,38.4Z" fill="#c36445ff"/>
  <path d="M57.53,66.84L49.97,73.19C48.99,74.01 47.49,73.56 47.12,72.34L45.91,68.32C45.79,67.92 46.01,67.49 46.42,67.37C46.82,67.25 47.25,67.47 47.37,67.88L48.58,71.9C48.63,72.07 48.85,72.14 48.99,72.02L56.55,65.67L57.53,66.84Z" fill="#e2c4a1ff"/>
  <path d="M68.46,55.45C63.78,55.75 60.49,61.33 61.1,67.92C61.4,71.26 62.66,74.21 64.42,76.28L61.34,77.52C57.14,75.02 54.55,69.37 55.22,63.14C56.06,55.16 60.76,49.83 67.28,49.83C68.24,49.83 69.13,50.11 69.88,50.54C71.47,51.45 71.99,53.38 72.22,55.2L72.39,56.52C71.77,55.55 70.66,55.31 68.46,55.45Z" fill="#a56644ff"/>
  <path d="M63.94,56.76C65.15,54.54 67.92,53.72 70.15,54.92L78.78,59.6C82.49,61.62 82.79,67 79.02,69.28C76.16,71.01 72.59,72.99 69.78,74.52C68.36,75.29 67.12,75.95 66.24,76.42C65.79,76.66 65.44,76.84 65.19,76.97L64.91,77.12L64.81,77.17C64.81,77.17 64.81,77.18 62.69,73.12C60.57,69.06 60.57,69.06 60.57,69.06L60.66,69.01L60.93,68.87C61.17,68.75 61.51,68.57 61.95,68.34C62.81,67.88 64.03,67.23 65.41,66.48C66.48,65.9 67.63,65.26 68.81,64.61L65.78,62.97C63.56,61.76 62.74,58.98 63.94,56.76Z" fill="#f1e6d9ff"/>
  <path d="M60.62,73.03m-7.33,0.46a7.34,7.34 131.41,1 1,14.66 -0.92a7.34,7.34 131.41,1 1,-14.66 0.92" fill="#db8d74ff"/>
  <path d="M61.1,66.3m-2.94,0.18a2.94,2.94 131.41,1 1,5.87 -0.37a2.94,2.94 131.41,1 1,-5.87 0.37" fill="#db8d74ff"/>
  <path d="M60.75,70.75C57.85,70.94 55.93,71.93 55.12,72.6C54.03,73.49 52.43,73.33 51.54,72.24C50.65,71.16 50.81,69.55 51.89,68.66C53.62,67.25 56.58,65.92 60.43,65.68C61.83,65.59 63.04,66.66 63.12,68.06C63.21,69.46 62.15,70.67 60.75,70.75Z" fill="#db8d74ff"/>
  <path d="M10.74,45.69L12.32,45.69A0.9,0.9 0,0 1,13.22 46.59L13.22,51.56A0.9,0.9 0,0 1,12.32 52.46L10.74,52.46A0.9,0.9 0,0 1,9.84 51.56L9.84,46.59A0.9,0.9 0,0 1,10.74 45.69z" fill="#cd7900ff"/>
  <path d="M17.28,55.75C17.89,55.75 18.35,55.17 18.2,54.57L17.41,51.39C17.19,50.48 16.38,49.85 15.45,49.85H7.62C6.69,49.85 5.87,50.48 5.65,51.39L4.86,54.57C4.72,55.17 5.17,55.75 5.78,55.75H17.28Z" fill="#cd7900ff"/>
  <path d="M16.96,42.11C16.96,42.11 16.1,43.86 14.05,43.63C12.47,43.45 11.52,42.4 11.52,40.88C11.52,39.37 12.63,37.69 14.62,38.21C16.13,38.6 16.84,41.19 16.96,42.11Z" fill="#db8d74ff"/>
  <path d="M77.8,71.58C77.74,71.4 77.67,71.23 77.61,71.05C77.18,69.94 76.77,68.91 76.39,67.94C76.01,69.95 74.8,71.64 73.53,72.46C73.53,72.46 69.54,74.68 67.43,75.76C66.7,77.53 65.68,78.36 65.14,78.81C65.1,78.84 65.06,78.87 65.02,78.91C66.59,82.81 67.16,85.75 67.38,87.83C71.47,84.41 75.29,80.68 78.8,76.66C78.78,75.1 78.46,73.42 77.8,71.58C77.8,71.58 77.8,71.58 77.8,71.58Z" fill="#db8d74ff"/>
  <path d="M34.78,30.63C34.88,30.63 34.99,30.64 35.09,30.65L58.06,31.21C58.56,31.22 58.95,31.63 58.95,32.13C58.95,32.63 58.54,33.04 58.04,33.04H57.03C57.03,33.04 58.95,36.76 60.72,52.01C61.13,51.71 61.58,51.77 61.94,52.12L64.03,54.13C64.66,54.73 64.64,55.8 64.1,56.48C67.26,55.97 71.09,58.25 73.57,60.72C71.89,56.12 70.84,52.03 70.11,44.65C68.94,32.89 58.47,24.31 46.71,25.48C42.12,25.93 38.01,27.81 34.78,30.63Z" fill="#db8d74ff"/>
  <path d="M78.79,76.68C75.28,80.68 71.46,84.41 67.38,87.83C67.17,85.75 66.59,82.81 65.02,78.9C65.06,78.87 65.1,78.84 65.14,78.81C65.68,78.36 66.7,77.53 67.43,75.76C69.54,74.68 73.53,72.46 73.53,72.46C74.8,71.64 76.01,69.95 76.39,67.94C76.77,68.91 77.18,69.94 77.61,71.05L77.61,71.06C78.45,73.36 78.81,75.15 78.79,76.68Z" fill="#a56644ff"/>
  <path d="M73.5,72.46C74.77,71.64 75.98,69.95 76.36,67.94C76.39,68.03 76.43,68.12 76.47,68.22C76.47,72.46 73.56,76.37 69.81,79.35C68.67,80.26 67.41,81.11 66.07,81.9C65.78,80.97 65.42,79.98 64.99,78.91C65.03,78.88 65.07,78.84 65.11,78.81C65.6,78.41 66.5,77.71 67.2,76.27C67.23,76.22 67.41,75.79 67.41,75.79C69.58,74.64 73.5,72.46 73.5,72.46Z" fill="#3d3d3dff"/>
  <path d="M60.72,52.01C62.57,50.6 64.79,49.83 67.28,49.83C68.24,49.83 69.13,50.11 69.88,50.54C70.36,50.82 70.75,51.19 71.06,51.63C72.2,53.06 72.12,55.12 72.46,56.63C71.8,55.97 70.35,55.33 68.46,55.45C67.4,55.52 66.4,55.86 65.51,56.43C65.03,56.39 64.56,56.41 64.1,56.48C64.64,55.8 64.66,54.73 64.04,54.13L61.94,52.12C61.58,51.77 61.13,51.71 60.72,52.01C60.72,52.01 60.72,52.01 60.72,52.01Z" fill="#a56644ff"/>
  <path d="M62.64,30.4C62.62,30.39 62.6,30.37 62.57,30.35C61.16,30.65 56.71,32.37 56.71,32.37C56.71,32.37 57.12,33.14 57.4,33.97C57.73,34.94 58.49,37.9 59.09,40.91C60.29,41.32 61.85,41.56 63.73,41.58C64.04,41.6 64.37,41.61 64.73,41.6C68.93,41.46 72.24,38.79 72.14,35.63C72.04,32.48 68.55,30.03 64.36,30.17C63.71,30.19 63.14,30.27 62.64,30.4Z" fill="#3d3d3dff"/>
  <path d="M34.18,16.24C35.18,14.21 37.07,12.77 39.29,12.37L51.87,10.05C53.47,9.76 55.12,10.02 56.55,10.8L64.2,14.95C66.5,16.19 68.15,18.36 68.75,20.9L71.13,31.01H45.59L29.22,26.38L34.18,16.24Z" fill="#a56644ff"/>
  <path d="M30.39,21.02C30.72,20.34 31.42,19.89 32.18,19.88C45.91,19.66 55.07,20.68 69.6,23.02C70.46,23.16 71.13,23.83 71.28,24.69L72.18,29.97H48.05L27.89,26.19L30.39,21.02Z" fill="#7d4729ff"/>
  <path d="M64.13,56.45C64.12,56.46 64.12,56.47 64.11,56.48C68.28,55.81 72.56,60.88 74.33,64C76.45,67.72 75.64,71.04 73.43,72.51C75.34,71.45 77.31,70.32 79.02,69.28C82.79,67 82.49,61.62 78.78,59.61L70.15,54.92C68.09,53.81 65.55,54.43 64.23,56.29C64.2,56.35 64.17,56.4 64.13,56.45Z" fill="#f1e6d9ff"/>
  <path d="M70.09,74.35C69.16,74.86 68.18,75.38 67.43,75.76C67.43,75.77 67.43,75.78 67.42,75.79C68.11,75.42 68.91,74.99 69.78,74.52C69.88,74.46 69.99,74.41 70.09,74.35Z" fill="#f1e6d9ff"/>
  <path d="M60,39.5C60.12,41.37 61.74,42.79 63.61,42.66C65.48,42.54 66.9,40.92 66.77,39.05C66.64,37.18 65.03,35.76 63.16,35.89C61.29,36.01 59.87,37.63 60,39.5Z" fill="#db8d74ff"/>
  <path d="M57.92,21.3V21.3C58.44,21.37 58.82,21.8 58.82,22.32V29.97H72.17L71.28,24.69C71.13,23.83 70.46,23.16 69.6,23.02C65.33,22.33 61.52,21.76 57.92,21.3Z" fill="#7d4729ff"/>
  <path d="M12.75,23.45C11.84,22.82 12.45,21.4 13.53,21.62L48.4,28.64L83.13,30.42C83.82,30.46 84.37,31.03 84.37,31.73V31.73C84.37,32.45 83.78,33.04 83.06,33.04H38.64C30.74,33.04 23.02,30.61 16.53,26.09L12.75,23.45Z" fill="#a56644ff"/>
</svg>