<svg xmlns="http://www.w3.org/2000/svg" width="101.0" height="110.0" viewBox="0 0 101.0 110.0">
  <path stroke="#ffc121" d="M39.59,25.75C29.68,32.73 21.03,41.37 14.05,51.29C9.45,57.85 9.45,66.72 14.05,73.28C21.03,83.19 29.68,91.87 39.63,98.85C46.18,103.45 55.02,103.45 61.58,98.85C71.5,91.87 80.17,83.23 87.15,73.28C91.75,66.72 91.75,57.88 87.15,51.32C80.17,41.41 71.53,32.73 61.58,25.75C55.02,21.15 46.18,21.15 39.63,25.75H39.59Z" stroke-width="4.5" stroke-linecap="round" stroke-linejoin="round"/>
  <path fill="#ffee9d" stroke="#ffd025" d="M39.59,21.75C29.68,28.73 21.03,37.38 14.05,47.29C9.45,53.85 9.45,62.72 14.05,69.28C21.03,79.19 29.68,87.87 39.63,94.85C46.18,99.45 55.02,99.45 61.58,94.85C71.5,87.87 80.17,79.23 87.15,69.28C91.75,62.72 91.75,53.88 87.15,47.32C80.17,37.41 71.53,28.73 61.58,21.75C55.02,17.15 46.18,17.15 39.63,21.75H39.59Z" stroke-width="4.5" stroke-linecap="round" stroke-linejoin="round"/>
   
  <path xmlns="http://www.w3.org/2000/svg" d="M41.19,23.63C46.97,19.57 54.78,19.57 60.56,23.63C70.29,30.46 78.75,38.95 85.58,48.65C89.64,54.44 89.64,62.24 85.58,68.02C78.75,77.75 70.26,86.21 60.55,93.05C54.77,97.1 46.97,97.1 41.19,93.04C31.46,86.22 23,77.73 16.16,68.02C12.11,62.24 12.11,54.4 16.16,48.62C22.94,38.99 31.33,30.58 40.95,23.78C41.03,23.73 41.11,23.68 41.19,23.63Z" fill="#ffee9d"/>
  <g>
    <path d="M79.55,16.71C76.53,17.77 74.94,21.04 76,24.02C77.06,27 80.37,28.56 83.38,27.5C86.4,26.45 87.99,23.18 86.93,20.2C85.87,17.22 82.56,15.66 79.55,16.71Z" fill="#ffc7b8ff"/>
    <path d="M81.51,22.32L71.41,43.17" fill="#00000000" stroke-width="8.65082" stroke="#ffc7b8ff"/>
    <path d="M23.41,25.09L33.53,35.55L31.17,45.1L28.2,47.16C21.26,51.96 12.61,44.06 16.78,36.73L23.41,25.09Z" fill="#33e3ffff"/>
    <path d="M70.19,23.66C70.14,25.3 68.76,26.59 67.12,26.54C65.48,26.49 64.19,25.12 64.24,23.48C64.29,21.83 65.66,20.54 67.3,20.59C68.95,20.64 70.24,22.01 70.19,23.66Z" fill="#ffc7b8ff"/>
    <path d="M38.54,23.66C38.49,25.3 37.12,26.59 35.48,26.54C33.83,26.49 32.54,25.12 32.59,23.48C32.64,21.83 34.02,20.54 35.66,20.59C37.3,20.64 38.59,22.01 38.54,23.66Z" fill="#ffc7b8ff"/>
    <path d="M59.89,14.41C59.8,17.41 57.29,19.76 54.3,19.67C51.3,19.58 48.94,17.07 49.03,14.07C49.12,11.08 51.63,8.72 54.63,8.81C57.63,8.9 59.98,11.41 59.89,14.41Z" fill="#ff9600ff"/>
    <path d="M54.57,8.47C54.47,11.54 51.91,13.96 48.83,13.86C45.76,13.77 43.34,11.2 43.43,8.12C43.53,5.05 46.1,2.63 49.17,2.73C52.25,2.82 54.66,5.39 54.57,8.47Z" fill="#ff9600ff"/>
    <path d="M60.44,76.74L58.96,83.27" fill="#00000000" stroke-linecap="round" stroke-width="7.49983" stroke="#393939ff"/>
    <path d="M46.04,12.29C41.88,12.29 38.18,14.92 36.83,18.86L24.75,53.95C23.46,57.68 23.96,61.8 26.11,65.12L30.45,71.84C33.11,75.94 37.67,78.42 42.56,78.42L60.74,78.42C65.63,78.42 70.18,75.94 72.84,71.83L77.19,65.12C79.33,61.8 79.83,57.68 78.55,53.95L66.46,18.85C65.11,14.92 61.41,12.29 57.25,12.29L46.04,12.29Z" fill="#ffc7b8ff"/>
    <path d="M75.63,45.48L27.55,45.79L24.74,53.95C23.46,57.68 23.96,61.8 26.1,65.12L30.45,71.84C33.11,75.94 37.67,78.42 42.56,78.42L56.89,78.42L60.82,78.4C63.76,78.38 66.58,77.47 68.93,75.86C70.47,74.8 71.8,73.44 72.84,71.83L76.85,65.63L77.35,64.84C77.37,64.81 77.39,64.78 77.41,64.75C79.36,61.5 79.78,57.54 78.55,53.95L75.63,45.48Z" fill="#0084c2ff"/>
    <path d="M71.3,33.16C70.61,32.45 69.65,32.03 68.61,32.04L34.68,32.26C33.55,32.27 32.5,32.75 31.77,33.56L26.75,48.13C27.71,46.85 29.22,46.06 30.88,46.05L72.32,45.72C73.82,45.71 75.22,46.33 76.2,47.38L71.3,33.16Z" fill="#33e3ffff"/>
    <path d="M76.46,32.74L72.57,30.86L72.57,30.86L76.46,32.74ZM82.88,29.42C83.92,27.27 83.02,24.68 80.88,23.64C78.73,22.6 76.14,23.5 75.1,25.64L82.88,29.42ZM72.57,30.86L67.52,41.28L75.3,45.06L80.36,34.63L72.57,30.86ZM75.1,25.64L72.57,30.86L80.36,34.63L82.88,29.42L75.1,25.64Z" fill="#33e3ffff"/>
    <path d="M48.66,36.58C48.14,36.35 47.53,36.58 47.3,37.1C47.17,37.42 46.71,37.98 45.99,38.55C45.29,39.1 44.48,39.53 43.76,39.69C43.2,39.81 42.85,40.36 42.97,40.92C43.09,41.47 43.64,41.83 44.19,41.7C45.31,41.46 46.4,40.84 47.26,40.17C48.09,39.52 48.85,38.7 49.19,37.94C49.42,37.42 49.18,36.81 48.66,36.58Z" fill="#ffffffff"/>
    <path d="M54.09,36.74C53.55,36.93 53.27,37.52 53.45,38.05C53.59,38.46 53.65,39.18 53.56,40.08C53.46,40.95 53.23,41.87 52.87,42.63C52.63,43.15 52.86,43.76 53.37,44C53.89,44.23 54.5,44 54.74,43.49C55.2,42.49 55.49,41.34 55.6,40.28C55.72,39.25 55.68,38.18 55.4,37.37C55.21,36.83 54.63,36.55 54.09,36.74Z" fill="#ffffffff"/>
    <path d="M35.55,53.73C35.55,53.73 35.39,55.2 35.98,57.76C36.57,60.32 37.03,60.79 37.03,60.79" fill="#00000000" stroke-linecap="round" stroke-width="7.49983" stroke="#393939ff"/>
    <path d="M51.81,25.24L51.81,25.24A2.88,2.88 46.76,0 1,54.6 28.21L54.47,32.4A2.88,2.88 46.76,0 1,51.5 35.19L51.5,35.19A2.88,2.88 46.76,0 1,48.71 32.22L48.84,28.03A2.88,2.88 46.76,0 1,51.81 25.24z" fill="#ffc7b8ff"/>
    <path d="M41.14,17.71C41.24,14.67 43.9,12.29 47.09,12.39C50.28,12.48 52.79,15.03 52.7,18.06C52.61,21.1 49.94,23.49 46.75,23.39C43.56,23.29 41.05,20.75 41.14,17.71Z" fill="#ffffffff"/>
    <path d="M50.91,17.87C51,14.91 53.6,12.59 56.71,12.68C59.82,12.78 62.27,15.26 62.18,18.22C62.09,21.18 59.49,23.51 56.38,23.41C53.27,23.32 50.82,20.84 50.91,17.87Z" fill="#ffffffff"/>
    <path d="M52.02,18.16C52.08,16.19 50.44,14.53 48.37,14.47C46.29,14.41 44.56,15.96 44.5,17.93C44.44,19.91 46.08,21.56 48.15,21.62C50.22,21.69 51.96,20.14 52.02,18.16Z" fill="#4b4b4bff"/>
    <path d="M58.81,18.16C58.87,16.19 57.24,14.53 55.17,14.47C53.09,14.41 51.36,15.96 51.3,17.93C51.24,19.91 52.87,21.56 54.95,21.62C57.02,21.69 58.75,20.14 58.81,18.16Z" fill="#4b4b4bff"/>
    <path d="M47.63,15.8C47.6,16.74 46.78,17.48 45.79,17.45C44.81,17.42 44.03,16.63 44.06,15.69C44.09,14.75 44.91,14.01 45.9,14.04C46.88,14.07 47.66,14.86 47.63,15.8Z" fill="#ffffffff"/>
    <path d="M55.03,15.74C55,14.8 54.18,14.09 53.19,14.12C53.19,14.12 51.72,15.55 51.52,16.25C51.72,16.95 52.39,17.47 53.19,17.5C54.18,17.53 55,16.79 55.03,15.85C55.03,15.83 55.03,15.82 55.03,15.8C55.03,15.78 55.03,15.76 55.03,15.74Z" fill="#ffffffff"/>
    <path d="M52.79,30.41C52.57,29.63 52.6,28.63 52.87,27.86C53.07,27.3 53.19,26.71 53.2,26.32C53.23,25.35 52.6,24.55 51.8,24.52C51,24.5 50.32,25.26 50.29,26.23C50.28,26.62 50.37,27.22 50.53,27.79C50.75,28.57 50.72,29.57 50.45,30.34C50.26,30.9 50.13,31.49 50.12,31.88C50.09,32.85 50.72,33.66 51.52,33.68C52.32,33.71 53,32.94 53.03,31.97C53.04,31.58 52.95,30.98 52.79,30.41Z" fill="#ca4900ff"/>
    <path d="M63.91,14.91C65.16,16.06 66.12,17.54 66.65,19.24L68.29,24.54L67.74,24.52C65.46,24.45 63.67,22.55 63.74,20.27L63.91,14.91Z" fill="#ffa85fff"/>
    <path d="M39.38,14.91C38.13,16.06 37.17,17.54 36.65,19.24L35,24.54L35.55,24.52C37.83,24.45 39.62,22.55 39.55,20.27L39.38,14.91Z" fill="#ffa85fff"/>
    <path d="M51.66,19.46L52.9,21.06C53.32,21.59 53.36,22.32 53.01,22.9L52.99,22.93C52.37,23.94 50.91,23.96 50.27,22.97V22.97C49.9,22.39 49.94,21.65 50.36,21.11L51.66,19.46Z" fill="#ee9583ff"/>
    <path d="M66.88,53.06C66.99,52.74 67.44,52.74 67.55,53.06L68.69,56.13C68.98,56.92 69.6,57.54 70.39,57.83L73.46,58.97C73.78,59.08 73.78,59.53 73.46,59.64L70.39,60.78C69.6,61.07 68.98,61.69 68.69,62.48L67.55,65.55C67.44,65.86 66.99,65.86 66.88,65.55L65.74,62.48C65.45,61.69 64.83,61.07 64.04,60.78L60.97,59.64C60.65,59.53 60.65,59.08 60.97,58.97L64.04,57.83C64.83,57.54 65.45,56.92 65.74,56.13L66.88,53.06Z" fill="#ffffffff"/>
    <path d="M17.9,37.64l18.68,-5.59l0.7,2.34l-18.68,5.59z" fill="#ffc700ff"/>
    <path d="M3.71,14.9C4.75,18.14 8.9,23.28 15.58,23.07" fill="#00000000" stroke-linecap="round" stroke-width="2.61317" stroke="#ffc700ff"/>
    <path d="M37.23,4.82C38.15,8.1 37.53,14.67 31.83,18.17" fill="#00000000" stroke-linecap="round" stroke-width="2.61317" stroke="#ffc700ff"/>
    <path d="M12.13,4.24L8.97,8.39C8.56,8.94 8.43,9.66 8.62,10.32L9.99,14.87L31.76,8.34L30.4,3.81C30.2,3.14 29.68,2.61 29.01,2.39L23.92,0.69C23.56,0.57 23.18,0.56 22.82,0.67L13.05,3.6C12.68,3.71 12.36,3.93 12.13,4.24Z" fill="#cd7900ff"/>
    <path d="M2.97,16.33C1.59,16.28 0.51,15.13 0.55,13.75V13.75C0.56,13.5 0.77,13.3 1.02,13.31L13.85,13.73L13.76,16.67L2.97,16.33Z" fill="#ffc700ff"/>
    <path d="M38.64,5.6C39.77,4.8 40.03,3.25 39.23,2.12V2.12C39.09,1.92 38.81,1.87 38.61,2.01L28.12,9.42L29.83,11.83L38.64,5.6Z" fill="#ffc700ff"/>
    <path d="M8.11,11.15L8.95,13.93L12.54,17.7L27.41,15.84L32.51,8.24L31.3,4.22C31.18,3.82 30.68,3.7 30.39,4L26.27,8.17L20.13,7.83C20,7.83 19.87,7.86 19.77,7.94L14.91,11.57L8.74,10.45C8.33,10.37 7.99,10.75 8.11,11.15Z" fill="#ffc700ff"/>
    <path d="M10.31,18.37L8.32,11.77L14.66,14.94L25.73,11.63L30.77,7.61C31.06,7.14 31.42,6.55 31.79,5.92L33.48,11.56C31.95,17.86 26.17,22.43 19.44,22.2C15.89,22.08 12.69,20.64 10.31,18.37Z" fill="#ffc700ff"/>
    <path d="M10.31,18.37L10.44,18.78C12.35,25.16 19.09,28.78 25.48,26.86C31.87,24.94 35.49,18.22 33.57,11.84L31.79,5.92C31.79,5.92 31.79,5.92 31.79,5.92L33.49,11.56C31.96,17.86 26.17,22.43 19.44,22.2C15.89,22.08 12.7,20.64 10.31,18.37Z" fill="#ff9600ff"/>
    <path d="M25.35,10.44C25.49,10.17 25.89,10.23 25.95,10.52V10.52C26.32,12.26 27.44,13.75 29,14.61V14.61C29.27,14.75 29.21,15.15 28.91,15.21V15.21C27.17,15.58 25.68,16.7 24.83,18.26V18.26C24.68,18.52 24.29,18.47 24.22,18.17V18.17C23.85,16.43 22.74,14.94 21.18,14.09V14.09C20.91,13.94 20.97,13.55 21.26,13.48V13.48C23,13.11 24.5,12 25.35,10.44V10.44Z" fill="#ffffffff"/>
    <path d="M24.07,22.89C20.87,23.45 18.73,26.36 19.27,29.38C19.82,32.4 22.86,34.39 26.06,33.83C29.26,33.26 31.4,30.36 30.85,27.34C30.3,24.32 27.26,22.32 24.07,22.89Z" fill="#ffc7b8ff"/>
    <path d="M19.42,35.68a2.14,7.75 73.55,1 0,14.87 -4.39a2.14,7.75 73.55,1 0,-14.87 4.39z" fill="#ffc700ff"/>
    <path d="M17.92,37.67a2.37,9.75 73.55,1 0,18.71 -5.53a2.37,9.75 73.55,1 0,-18.71 5.53z" fill="#ffc700ff"/>
    <path d="M18.58,39.91a2.37,9.75 73.55,1 0,18.71 -5.53a2.37,9.75 73.55,1 0,-18.71 5.53z" fill="#ff9600ff"/>
  </g>
</svg>