<svg id="vector" xmlns="http://www.w3.org/2000/svg" width="101.0" height="111.0" viewBox="0 0 101.0 111.0">
    <defs>
        <linearGradient x1="0.4624" y1="0.8432" x2="0.8053" y2="0.3192" id="achievement_badge_unrivaled__0" >
            <stop stop-color="#aab6ff" offset="04%" />
            <stop stop-color="#62f4df" offset="27%" />
            <stop stop-color="#ceffc7" offset="46%" />
            <stop stop-color="#fff0b1" offset="63%" />
            <stop stop-color="#ffb89f" offset="91%" />
        </linearGradient>
        <radialGradient cx="1.0543" cy="0.3594" r="0.7466" id="achievement_badge_unrivaled__1" >
            <stop stop-color="#5bf6ff" offset="58%" stop-opacity="0" />
            <stop stop-color="#5bf6ff" offset="87%" stop-opacity="1" />
        </radialGradient>
    </defs>
    <path d="M89.69,59.25C89.69,63.79 89.48,68.07 89.08,72.5C88.59,77.86 85.78,82.73 81.4,85.84C74.09,91.02 66.28,95.55 58.07,99.34C53.19,101.59 47.56,101.59 42.68,99.34C34.47,95.55 26.66,91.02 19.35,85.84C14.97,82.74 12.16,77.86 11.67,72.5C11.27,68.07 11.06,63.58 11.06,59.04C11.06,54.5 11.27,49.99 11.67,45.55C12.16,40.2 14.97,35.32 19.35,32.22C26.66,27.04 34.47,22.51 42.68,18.72C47.56,16.46 53.18,16.46 58.06,18.72C66.28,22.51 74.08,27.04 81.4,32.22C85.78,35.32 88.59,40.2 89.08,45.55C89.48,49.99 89.69,54.7 89.69,59.25Z" stroke-width="4.5" stroke="#3985e8"/>
    <path d="M89.69,55.25C89.69,59.79 89.48,64.07 89.08,68.5C88.59,73.86 85.78,78.73 81.4,81.84C74.09,87.02 66.28,91.55 58.07,95.34C53.19,97.59 47.56,97.59 42.68,95.34C34.47,91.55 26.66,87.02 19.35,81.84C14.97,78.74 12.16,73.86 11.67,68.5C11.27,64.07 11.06,59.58 11.06,55.04C11.06,50.5 11.27,45.99 11.67,41.55C12.16,36.2 14.97,31.32 19.35,28.22C26.66,23.04 34.47,18.51 42.68,14.72C47.56,12.46 53.18,12.46 58.06,14.72C66.28,18.51 74.08,23.04 81.4,28.22C85.78,31.32 88.59,36.2 89.08,41.55C89.48,45.99 89.69,50.7 89.69,55.25Z" fill="#4a93f2" stroke-width="4.5" stroke="#4a93f2"/>
    
    <path fill="#2b70c9ff" d="M13.69,68.43C13.37,64.89 13.18,61.32 13.12,57.72C13.02,53.81 13.29,45.79 13.62,42.1C14.05,37.38 16.59,33 20.45,30.27C27.67,25.16 35.38,20.69 43.48,16.94C45.62,15.96 47.92,15.46 50.22,15.46C52.53,15.46 54.83,15.96 56.96,16.94C65.07,20.69 72.78,25.16 80,30.27C83.85,33 86.33,37.29 86.75,42C87.07,45.54 87.27,53.98 87.33,57.72C87.27,61.32 87.07,64.89 86.75,68.43C86.33,73.14 83.85,77.43 80,80.16C72.78,85.28 65.07,89.75 56.96,93.49C54.83,94.48 52.53,94.97 50.22,94.98C47.92,94.97 45.62,94.48 43.48,93.49C35.38,89.75 27.67,85.28 20.45,80.16C16.59,77.43 14.12,73.14 13.69,68.43Z" id="path_0" />
    <path fill="#ffffffff" d="M13.48,44.59L85.95,72.09C86.34,70.92 86.6,69.71 86.71,68.47C86.75,68.02 86.79,67.56 86.82,67.11L14.08,39.51C13.87,40.34 13.73,41.18 13.65,42.04C13.59,42.73 13.53,43.6 13.48,44.59Z" id="path_1" />
    <path fill="#58f5ffff" d="M80.39,71.35C80.63,70.74 80.56,70.06 80.21,69.52L61.59,40.73C60.41,39.11 54.76,39.23 53.75,40.73C48.99,47.82 49.24,62.92 54.71,71.01C54.92,71.33 55.23,71.56 55.58,71.7L67.85,76.61C68.24,76.76 68.67,76.79 69.08,76.69L78.27,74.42C78.9,74.26 79.41,73.81 79.65,73.21L80.39,71.35Z" id="path_2" />
    <path fill="#5bf6ffff" d="M46.12,57.04L28.78,24.65C28.26,23.67 27.03,23.3 26.05,23.84L23.43,25.26C22.92,25.54 22.56,26.02 22.43,26.58L19.77,38.34C19.71,38.61 19.71,38.89 19.76,39.17L22.63,53.97C22.63,53.97 35.57,61.94 44.21,61.06C46.01,60.88 46.97,58.84 46.12,57.04Z" id="path_3" />
    <path fill="#5cf7ffff" d="M46.12,57.04L28.78,24.65C28.26,23.67 27.03,23.3 26.05,23.84L23.43,25.26C22.92,25.54 22.56,26.02 22.43,26.58L19.77,38.34C19.71,38.61 19.71,38.89 19.76,39.17L22.63,53.97C22.63,53.97 35.57,61.94 44.21,61.06C46.01,60.88 46.97,58.84 46.12,57.04Z" id="path_4" />
    <path fill="#58f5ffff" d="M69.84,28.63C69.25,28.11 68.48,27.84 67.69,27.87L60.2,28.24L56.01,21.95C55.55,21.26 54.81,20.79 53.99,20.65L47.46,19.6C46.07,19.38 44.63,19.57 43.38,20.21C42.24,20.79 40.93,21.49 40.46,21.9C38.86,23.3 37.35,24.79 35.97,26.4C33.58,29.17 29.71,33.79 27.49,37.14C27.37,37.33 27.27,37.52 27.2,37.73L22.41,50.7C22.22,51.22 22.18,51.78 22.29,52.33L25.91,70.58C26.1,71.51 26.71,72.3 27.56,72.71L45.47,81.29C46.26,81.67 47.18,81.69 47.99,81.33L65.62,73.51C66.54,73.1 67.2,72.26 67.37,71.26L68.92,62.12L78.53,48.33C78.85,47.86 79.04,47.31 79.06,46.74L79.43,38.67C79.47,37.77 79.1,36.89 78.43,36.29L69.84,28.63Z" id="path_5" />
    <path fill="#5bf6ffff" d="M69.84,28.63C69.25,28.11 68.48,27.84 67.69,27.87L60.2,28.24L56.01,21.95C55.55,21.26 54.81,20.79 53.99,20.65L47.46,19.6C46.07,19.38 44.63,19.57 43.38,20.21C42.24,20.79 40.93,21.49 40.46,21.9C38.86,23.3 37.35,24.79 35.97,26.4C33.58,29.17 29.71,33.79 27.49,37.14C27.37,37.33 27.27,37.52 27.2,37.73L22.41,50.7C22.22,51.22 22.18,51.78 22.29,52.33L25.91,70.58C26.1,71.51 26.71,72.3 27.56,72.71L45.47,81.29C46.26,81.67 47.18,81.69 47.99,81.33L65.62,73.51C66.54,73.1 67.2,72.26 67.37,71.26L68.92,62.12L78.53,48.33C78.85,47.86 79.04,47.31 79.06,46.74L79.43,38.67C79.47,37.77 79.1,36.89 78.43,36.29L69.84,28.63Z" id="path_6" />
    <path fill="#1cb0f6ff" d="M87.12,50.67L44,53.79L71.55,85.73C74.42,83.98 77.22,82.14 79.95,80.2C83.81,77.47 86.28,73.18 86.71,68.47C87.03,64.93 87.22,61.36 87.29,57.75C87.26,56.06 87.2,53.4 87.12,50.67Z" id="path_7" />
    <path fill="#ade756ff" d="M86.58,69.73C85.86,73.92 83.5,77.69 80,80.16C79.97,80.18 79.94,80.2 79.91,80.22L44,53.79L87.12,50.67C87.2,53.4 87.26,56.06 87.29,57.75C87.22,61.36 87.03,64.93 86.71,68.47C86.67,68.88 86.63,69.3 86.58,69.73Z" id="path_8" />
    <path fill="#ff9600ff" d="M87.3,59.02C87.22,62.18 87.03,65.32 86.75,68.43C86.67,69.34 86.51,70.23 86.29,71.09L44,53.79L87.12,50.67C87.2,53.4 87.26,56.26 87.29,57.95C87.29,58.21 87.29,58.58 87.3,59.02Z" id="path_9" />
    <path fill="#ff4b4bff" d="M87.19,51.39C87.26,53.85 87.3,56.18 87.33,57.72C87.31,58.97 87.27,60.21 87.22,61.45L44,53.79L87.12,50.67C87.13,50.88 87.15,51.12 87.19,51.39Z" id="path_10" />
    <path fill="#5bf6ffff" d="M80.39,71.35C80.62,70.75 80.56,70.06 80.2,69.52L66.04,47.65C66.04,47.65 59.3,51.03 58.29,52.54C53.43,59.77 49.25,63.52 55.04,71.49L67.85,76.61C68.24,76.76 68.67,76.79 69.08,76.69L78.27,74.42C78.9,74.26 79.41,73.81 79.65,73.21L80.39,71.35Z" id="path_11" />
    <path fill="url(#achievement_badge_unrivaled__0)" d="M67.69,27.87C68.48,27.84 69.25,28.11 69.84,28.63L78.43,36.29C79.1,36.89 79.47,37.77 79.43,38.67L79.07,46.74C79.04,47.31 78.85,47.86 78.53,48.33L72.28,57.29L80.21,69.52C80.56,70.06 80.63,70.74 80.39,71.35L79.65,73.21C79.42,73.81 78.9,74.26 78.27,74.42L69.08,76.69C68.67,76.79 68.24,76.76 67.85,76.61L63.01,74.67L47.99,81.33C47.19,81.69 46.27,81.67 45.47,81.29L27.56,72.71C26.71,72.3 26.1,71.51 25.91,70.58L22.29,52.33C22.18,51.78 22.22,51.22 22.42,50.7L27.2,37.73C27.28,37.52 27.37,37.33 27.5,37.14C29.72,33.79 33.58,29.17 35.97,26.4C37.36,24.79 38.87,23.3 40.46,21.9C40.94,21.49 42.24,20.79 43.38,20.21C44.64,19.57 46.07,19.38 47.46,19.6L53.99,20.65C54.82,20.78 55.55,21.26 56.01,21.95L60.21,28.24L67.69,27.87Z" id="path_12" />
    <path fill="url(#achievement_badge_unrivaled__1)" d="M67.69,27.87C68.48,27.84 69.25,28.11 69.84,28.63L78.43,36.29C79.1,36.89 79.47,37.77 79.43,38.67L79.07,46.74C79.04,47.31 78.85,47.86 78.53,48.33L72.28,57.29L80.21,69.52C80.56,70.06 80.63,70.74 80.39,71.35L79.65,73.21C79.42,73.81 78.9,74.26 78.27,74.42L69.08,76.69C68.67,76.79 68.24,76.76 67.85,76.61L63.01,74.67L47.99,81.33C47.19,81.69 46.27,81.67 45.47,81.29L27.56,72.71C26.71,72.3 26.1,71.51 25.91,70.58L22.29,52.33C22.18,51.78 22.22,51.22 22.42,50.7L27.2,37.73C27.28,37.52 27.37,37.33 27.5,37.14C29.72,33.79 33.58,29.17 35.97,26.4C37.36,24.79 38.87,23.3 40.46,21.9C40.94,21.49 42.24,20.79 43.38,20.21C44.64,19.57 46.07,19.38 47.46,19.6L53.99,20.65C54.82,20.78 55.55,21.26 56.01,21.95L60.21,28.24L67.69,27.87Z" id="path_13" />
    <path fill="#ffffffff" d="M43.08,39.19L46.15,35.09C46.49,34.63 46.95,34.28 47.48,34.08L50.7,32.85C51.61,32.49 52.65,32.61 53.46,33.16L56.97,35.54C57.93,36.19 58.43,37.33 58.26,38.48L57.72,42.04C57.65,42.53 57.45,42.99 57.16,43.39L54.12,47.45C53.76,47.94 53.24,48.31 52.66,48.5L48.65,49.82C47.65,50.15 46.56,49.94 45.76,49.26L43.04,46.96C42.26,46.3 41.87,45.28 42.01,44.26L42.51,40.58C42.58,40.08 42.78,39.6 43.08,39.19Z" id="path_14" />
    <path fill="#1cb0f6ff" d="M43.87,39.81L46.95,35.69C47.18,35.38 47.49,35.15 47.84,35.02L51.05,33.78C51.67,33.55 52.35,33.62 52.9,33.99L56.41,36.37C57.05,36.8 57.38,37.56 57.27,38.33L56.73,41.89C56.68,42.21 56.55,42.52 56.35,42.79L53.31,46.86C53.07,47.18 52.74,47.43 52.35,47.56L48.29,48.95C47.7,49.15 47.04,49.07 46.52,48.71L43.72,46.82C43.08,46.38 42.75,45.62 42.86,44.85L43.5,40.71C43.55,40.38 43.68,40.07 43.87,39.81ZM46.15,35.09L43.07,39.21C42.77,39.6 42.58,40.07 42.51,40.55L41.87,44.7C41.7,45.85 42.2,46.99 43.16,47.65L45.96,49.54C46.74,50.07 47.72,50.2 48.62,49.9L52.68,48.51C53.25,48.31 53.75,47.95 54.11,47.46L57.16,43.39C57.45,42.99 57.65,42.53 57.72,42.04L58.26,38.48C58.43,37.33 57.93,36.19 56.97,35.54L53.46,33.16C52.65,32.61 51.61,32.49 50.7,32.84L47.48,34.08C46.95,34.28 46.49,34.63 46.15,35.09Z" fill-rule="evenodd" id="path_15" />
    <path fill="#ffffffff" d="M39.32,32.59C41.62,29.6 42.41,26.36 41.1,25.35C39.78,24.34 36.85,25.94 34.56,28.93L32.22,31.98C28.99,34.85 29.13,38.21 30.45,39.22C31.76,40.23 34.69,38.63 36.99,35.64L39.32,32.59Z" id="path_16" />
    <path fill="#1cb0f6ff" d="M41.27,26.13L41.1,28.61L33.6,38.41L31.59,38.9L30.16,37.84L29.88,35.53C29.88,35.53 29.88,35.53 29.88,35.53C29.88,35.53 29.88,35.53 29.89,35.53C29.97,35.42 30.06,35.3 30.14,35.19C32.75,31.73 33.95,30.12 36.94,26.75C36.94,26.75 36.94,26.75 36.94,26.75C36.94,26.75 36.94,26.75 36.94,26.75C36.94,26.75 36.94,26.75 36.94,26.75L39.84,25.16L41.27,26.13ZM42.1,28.68C42.08,28.88 42.01,29.06 41.89,29.22L34.4,39.01C34.26,39.2 34.06,39.32 33.84,39.38L31.83,39.87C31.54,39.94 31.23,39.88 30.99,39.7L29.56,38.64C29.34,38.48 29.2,38.23 29.17,37.96L28.89,35.65C28.86,35.4 28.93,35.14 29.08,34.93C29.17,34.81 29.26,34.7 29.34,34.59C31.95,31.12 33.18,29.49 36.19,26.09C36.27,26 36.36,25.93 36.46,25.87L39.36,24.28C39.69,24.1 40.09,24.12 40.41,24.33L41.84,25.31C42.13,25.51 42.3,25.85 42.27,26.2L42.1,28.68Z" fill-rule="evenodd" id="path_17" />
    <path fill="#2b70c9ff" d="M40.85,30.57L40.85,29.35C40.85,29.01 40.67,28.69 40.39,28.51L40.05,28.29C39.78,28.12 39.44,28.08 39.14,28.2L37.88,28.69C37.7,28.77 37.54,28.89 37.42,29.06L34.41,33.42C34.3,33.59 34.24,33.79 34.24,33.99L34.24,35.3C34.24,35.67 34.44,36 34.75,36.18L35.12,36.38C35.49,36.59 35.95,36.54 36.26,36.26L37.04,35.58L40.85,30.57Z" id="path_18" />
    <path fill="#2b70c9ff" d="M52.16,36.12C52.72,35.92 53.33,35.98 53.84,36.27L54.72,36.78C55.23,37.08 55.59,37.58 55.69,38.16L56.04,40.12C56.13,40.59 56.04,41.07 55.81,41.48L53.73,45.08C53.49,45.5 53.11,45.81 52.66,45.97L50.8,46.62C50.25,46.82 49.64,46.76 49.13,46.47L48.24,45.95C47.73,45.66 47.38,45.17 47.27,44.59L46.9,42.65C46.81,42.18 46.9,41.69 47.14,41.27L49.21,37.68C49.45,37.27 49.83,36.95 50.27,36.79L52.16,36.12Z" id="path_19" />
    <path fill="#1cb0f6ff" d="M43.33,20.24C43.09,20.36 42.83,20.49 42.58,20.63C41.68,21.1 40.83,21.59 40.46,21.9L39.43,22.79C38.77,23.36 38.03,24.07 37.24,24.89C34.59,27.84 30.29,33.13 27.94,36.44C27.58,36.94 27.36,37.51 27.27,38.12L26.94,40.49C26.94,41.12 27.23,41.71 27.72,42.08L30.04,43.68C30.46,43.99 31.26,43.99 31.78,43.68L38.02,39.53L38.63,48.88C38.73,49.3 38.97,49.68 39.3,49.96L45.92,54.39C46.47,54.85 47.24,54.98 47.92,54.73L54.84,52.09C55.19,51.96 55.5,51.73 55.73,51.42L60.63,44.91C60.81,44.66 60.94,44.38 61,44.07L62.09,38.2L64.13,36.87C64.32,36.75 64.48,36.57 64.59,36.37L65.78,34.18C66.15,33.5 65.82,32.8 65.14,32.83L62.09,32.41L63.32,31.41L64.2,29.43C64.57,28.75 64.24,28.05 63.56,28.07L46.74,28.4C46.53,28.4 46.32,28.34 46.14,28.21L44.98,27.39C44.75,27.23 44.6,26.99 44.57,26.71L44.05,23.03C44.05,22.96 44.05,22.87 44.05,22.77C44.04,22.54 44.03,22.27 44.05,22.07L44.42,19.79C44.41,19.8 44.38,19.81 44.32,19.83C44.12,19.9 43.66,20.06 43.51,20.15L43.37,20.22C43.36,20.22 43.35,20.23 43.33,20.24ZM43.14,21.46C43.1,21.48 43.07,21.5 43.04,21.51C42.12,22 41.38,22.43 41.11,22.66L40.08,23.55C39.46,24.09 38.74,24.78 37.97,25.57C35.34,28.5 31.08,33.75 28.75,37.02C28.5,37.38 28.33,37.8 28.27,38.26L27.94,40.55C27.96,40.83 28.09,41.1 28.32,41.28L30.63,42.86L30.64,42.87C30.65,42.88 30.66,42.88 30.68,42.89C30.73,42.9 30.79,42.91 30.87,42.91C31.03,42.91 31.17,42.87 31.25,42.82L38.91,37.74L39.63,48.72C39.68,48.89 39.78,49.04 39.91,49.16L46.52,53.58L46.56,53.62C46.84,53.85 47.22,53.92 47.56,53.79L54.48,51.16C54.66,51.09 54.82,50.97 54.93,50.82L59.83,44.31C59.92,44.19 59.98,44.04 60.01,43.89L61.19,37.59L63.58,36.03C63.63,36 63.68,35.95 63.71,35.89L64.85,33.8L59.66,33.08L62.5,30.79L63.25,29.08L46.76,29.4C46.33,29.41 45.91,29.28 45.56,29.03L44.4,28.21C43.95,27.89 43.65,27.4 43.57,26.85L43.05,23.1V23.03C43.05,22.97 43.05,22.92 43.05,22.84C43.04,22.78 43.04,22.7 43.04,22.59C43.03,22.42 43.03,22.16 43.06,21.93L43.06,21.92L43.14,21.46Z" fill-rule="evenodd" id="path_20" />
    <path fill="#ffffffff" d="M33.63,39.91L34.06,36.49L36.79,36.35C37.41,36.31 38.01,36.54 38.42,36.97L39.83,38.41C40.27,38.86 40.45,39.47 40.33,40.07L39.63,43.57C39.57,43.89 39.18,44.04 38.9,43.85C37.73,43.07 35.11,41.33 33.88,40.47C33.7,40.34 33.6,40.13 33.63,39.91Z" id="path_21" />
    <path fill="#1cb0f6ff" d="M38.98,44.29C39.22,43.91 39.19,43.42 38.9,43.09C37.79,41.82 35.22,38.85 35.22,38.85L31.08,45.24C30.58,46.03 30.06,47.18 30.06,48.2C30.06,50.02 31.83,51.58 33.5,51.05C34.2,50.83 35.04,50.34 35.68,49.4L38.98,44.29Z" id="path_22" />
    <path fill="#2b70c9ff" d="M33.05,40.83L33.92,36.64C33.95,36.47 34.19,36.43 34.29,36.57L39.37,43.48C39.59,43.79 39.24,44.17 38.88,44.01L33.4,41.5C33.13,41.38 32.99,41.11 33.05,40.83Z" id="path_23" />
    <path fill="#2b70c9ff" d="M38.08,43.02L35.06,47.64C34.77,48.08 34.34,48.38 33.83,48.5L33.68,48.54C32.71,48.77 31.73,48.2 31.46,47.24C31.31,46.71 31.4,46.15 31.7,45.7L34.62,41.32L38.08,43.02Z" id="path_24" />
    <path fill="#47d7ffff" d="M78.6,74.3C78.5,74.35 78.39,74.39 78.27,74.42L69.08,76.69C68.67,76.79 68.24,76.76 67.85,76.61L63.01,74.67L47.99,81.33C47.19,81.69 46.27,81.67 45.47,81.29L27.57,72.71C26.71,72.3 26.1,71.51 25.92,70.58L22.36,52.66L39.31,64.94L55.76,57.82L55.77,57.76L55.82,57.8L55.9,57.76L55.91,57.86L78.6,74.3Z" id="path_25" />
    <path fill="#4a93f2ff" d="M42.24,62.64C42.92,62.04 43.92,61.97 44.68,62.48L46.85,63.93C47.31,64.25 47.63,64.74 47.71,65.3L48.15,68.18L48.83,71.05C48.93,71.51 48.88,71.99 48.66,72.41L47.65,74.41C47.24,75.23 46.32,75.67 45.42,75.46L42.75,74.86C41.99,74.69 41.4,74.09 41.24,73.33L39.69,66.25C39.54,65.54 39.78,64.8 40.33,64.32L42.24,62.64Z" fill-rule="evenodd" id="path_26" />
    <path fill="#ffffffff" d="M57.12,64.57C57.2,64.15 57.81,64.15 57.9,64.57C58.23,66.2 59.51,67.47 61.14,67.81C61.56,67.9 61.56,68.5 61.14,68.59C59.51,68.93 58.23,70.2 57.9,71.83C57.81,72.25 57.2,72.25 57.12,71.83C56.78,70.2 55.5,68.93 53.87,68.59C53.45,68.5 53.45,67.9 53.87,67.81C55.5,67.47 56.78,66.2 57.12,64.57Z" id="path_27" />
    <path fill="#4a93f2ff" d="M38.79,91.24C36.63,90.15 34.5,89 32.4,87.81L32.56,87.15C32.68,86.65 32.98,86.22 33.41,85.94L38.49,82.62C38.92,82.35 39.43,82.24 39.92,82.32L42.18,82.71C43.14,82.87 43.84,83.71 43.84,84.69V86.84C43.84,87.51 43.5,88.14 42.94,88.51L38.79,91.24Z" id="path_28" />
    <path fill="#47d7ffff" d="M29.34,7.63L24.86,10.99C24.68,11.12 24.57,11.32 24.54,11.53L23.99,15.89C23.98,15.97 23.93,16.05 23.87,16.09C23.74,16.19 23.55,16.17 23.45,16.03L21.78,13.83C21.64,13.65 21.39,13.62 21.21,13.75L13.68,19.46C12.83,20.1 12.35,21.12 12.41,22.19L12.81,29.73L19.96,32.16C20.97,32.5 22.01,31.93 22.86,31.29L38.56,19.86C39.25,19.35 39.69,18.59 39.78,17.74L40.24,13.35C40.32,12.61 40.12,11.87 39.68,11.27L38.09,9.08C37.63,8.45 36.95,8.02 36.18,7.89L31.67,7.08C30.85,6.93 30.01,7.13 29.34,7.63Z" id="path_29" />
    <path fill="#1cb0f6ff" d="M32.28,15.01C32.62,15.45 32.53,16.09 32.08,16.42L9.54,33.5C9.09,33.84 8.46,33.75 8.12,33.3C7.78,32.86 7.87,32.22 8.31,31.88L30.86,14.81C31.31,14.47 31.94,14.56 32.28,15.01Z" fill-rule="evenodd" id="path_30" />
    <path fill="#6ef4f6ff" d="M35.81,46.48L35.05,47.64C34.77,48.08 34.33,48.38 33.83,48.5L33.68,48.54C33.01,48.7 32.33,48.47 31.88,48C31.86,47.88 31.86,47.77 31.86,47.65C31.86,46.47 32.82,45.5 34.01,45.5C34.77,45.5 35.43,45.89 35.81,46.48Z" id="path_31" />
    <path fill="#ffffffff" d="M51.01,36.67m-2.34,0a2.34,2.34 0,1 1,4.68 0a2.34,2.34 0,1 1,-4.68 0" id="path_32" />
    <path fill="#ffffffff" d="M36.52,30.27a2.1,1.45 129.1,1 0,2.65 -3.26a2.1,1.45 129.1,1 0,-2.65 3.26z" id="path_33" />
</svg>