<svg id="vector" xmlns="http://www.w3.org/2000/svg" width="144" height="150" viewBox="0 0 144 150">
   <defs>
      <clipPath id="clip_path_0">
         <path d="M0,0h144v150h-144z"/>
      </clipPath>
     <linearGradient id="grad0" x1="71.52" y1="29.82" x2="71.52" y2="121" gradientUnits="userSpaceOnUse">
        <stop offset="0.21" stop-color="#fdc615" stop-opacity="1" />
        <stop offset="0.61" stop-color="#fdc615" stop-opacity="0" />
      </linearGradient>
      <linearGradient id="grad1" x1="80.78" y1="5.27" x2="47.2" y2="93.57" gradientUnits="userSpaceOnUse">
        <stop offset="0.07" stop-color="#faff00" stop-opacity="1" />
        <stop offset="1" stop-color="#ff8a00" stop-opacity="1" />
      </linearGradient>
      <linearGradient id="grad2" x1="80.78" y1="5.27" x2="50.19" y2="119.7" gradientUnits="userSpaceOnUse">
        <stop offset="0.13" stop-color="#faff00" stop-opacity="1" />
        <stop offset="1" stop-color="#ff6332" stop-opacity="1" />
      </linearGradient>
   </defs>
   <g id="g_0">
      <path fill="#683200" d="M50,91.25L36.19,87.55C29.19,85.67 26.85,76.92 31.97,71.8L71.19,32.58C76.32,27.46 85.06,29.8 86.94,36.8L93.04,59.57L106.85,63.27C113.85,65.15 116.19,73.9 111.07,79.02L71.85,118.24C66.73,123.36 57.98,121.02 56.1,114.02L50,91.25Z" clip-path="url(#clip_path_0)"/>
      <path fill="#00000000" d="M35.57,89.86L48.05,93.2L53.79,114.64C56.14,123.42 67.12,126.36 73.55,119.93L112.76,80.71C119.19,74.29 116.25,63.31 107.47,60.96L95,57.61L89.25,36.18C86.9,27.4 75.93,24.46 69.5,30.89L30.28,70.11L31.97,71.8L30.28,70.11C23.85,76.53 26.79,87.51 35.57,89.86Z" stroke="#834f00" stroke-width="4.7925"/>
      <path fill="#00000000" d="M35.57,89.86L48.05,93.2L53.79,114.64C56.14,123.42 67.12,126.36 73.55,119.93L112.76,80.71C119.19,74.29 116.25,63.31 107.47,60.96L95,57.61L89.25,36.18C86.9,27.4 75.93,24.46 69.5,30.89L30.28,70.11C23.85,76.53 26.79,87.51 35.57,89.86Z" stroke="url(#grad0)" stroke-width="4.7925"/>
      <path fill="#feb001" d="M35.01,75.5L50.34,59.07L72.34,72.55C68.47,76 63.32,81.58 53.34,83C46.92,83.91 40.88,83.08 36.5,81.89C33.62,81.11 32.97,77.69 35.01,75.5Z"/>
      <path fill="url(#grad1)" d="M85.24,28.84C79.51,27.55 76.66,28.87 73.47,30.38C68.12,29.49 63.19,28.24 56.29,28.56C49.38,28.88 42.64,33 42.39,41.06C42.14,49.13 45.83,57.63 47.42,63.35C48.21,68.49 49.02,74.79 51.38,80.96C53.73,87.14 64.94,93.93 75.53,93.56C86.11,93.19 96.84,85.86 100.4,78.32C103.97,70.78 105.55,62.29 102.88,50.01C99.9,36.29 90.97,30.12 85.24,28.84Z"/>
      <path fill="url(#grad2)" d="M73.47,30.37C76.66,28.86 79.51,27.55 85.24,28.83C90.97,30.12 99.9,36.28 102.88,50.01C105.55,62.29 103.97,70.78 100.4,78.32C96.84,85.85 86.12,93.18 75.53,93.55C66.15,93.88 56.3,88.6 52.52,83.1C46.41,83.83 40.69,83.03 36.5,81.89C33.62,81.11 32.97,77.69 35.01,75.5L47.17,62.47C46.83,61.34 46.43,60.12 46.01,58.83C44.29,53.6 42.2,47.21 42.39,41.06C42.64,32.99 49.38,28.88 56.29,28.56C61.93,28.3 66.26,29.08 70.57,29.86C71.53,30.04 72.49,30.21 73.47,30.37Z"/>
      <path fill="#00000000" d="M64.07,104.38C65.05,102.92 65.63,100.92 66.08,99.16" stroke="#ff7a00" stroke-width="7.4551" stroke-linecap="round"/>
      <path fill="#fff980" d="M85.37,45.9L95.26,41.41C95.34,41.66 95.4,41.92 95.46,42.18C95.6,42.84 95.72,43.4 95.83,43.9C96.24,45.81 96.46,46.81 96.54,48.87C96.63,51.47 95.25,54.54 92.44,55.34C89.63,56.13 86.71,54.2 86.2,51.09L85.37,45.9Z"/>
      <path fill="#ffffff" d="M96.34,50.84C95.87,52.85 94.56,54.74 92.44,55.34C91.32,55.66 90.18,55.54 89.18,55.09C89.08,54.66 89.04,54.21 89.06,53.74C89.18,51.28 91.17,49.36 93.49,49.46C94.62,49.51 95.62,50.03 96.34,50.84Z"/>
      <path fill="#fff980" d="M62.34,44.51C62.28,44.88 62.25,45.27 62.25,45.67L62.26,49.14C62.11,53.57 65.05,58.01 69.61,58.29C74.18,58.56 77.11,54.61 77.08,50.52L77.05,46.98L62.34,44.51Z"/>
      <path fill="#ff7a00" d="M91.58,43.09L85.37,45.91L85.99,49.74C86.57,51.29 88.07,52.12 89.6,51.73C91.36,51.29 92.27,49.4 92.26,47.78C92.25,46.5 92.13,45.87 91.9,44.67C91.84,44.36 91.77,44.01 91.7,43.59C91.67,43.42 91.63,43.25 91.58,43.09Z"/>
      <path fill="#00000000" d="M84.72,44.82C84.72,44.82 85.35,46.32 87.15,45.73C88.96,45.14 95.4,41.22 95.4,41.22" stroke="#ff7a00" stroke-width="1.5975" stroke-linecap="round" stroke-linejoin="round"/>
      <path fill="#fff980" d="M77.32,40.36C76.37,43.26 71.25,43.23 64.08,41.16C56.91,39.09 52.78,36.07 53.73,33.17C54.68,30.26 60.37,29.94 66.82,32.05C73.27,34.15 78.26,37.46 77.32,40.36Z"/>
      <path fill="#00000000" d="M88.77,35.38C88.17,37.34 85.91,40.57 81.28,41.2" stroke="#fff980" stroke-width="1.4235" stroke-linecap="round"/>
      <path fill="#00000000" d="M88.77,35.38C88.17,37.34 85.91,40.57 81.28,41.2" stroke="#fff980" stroke-width="1.4235" stroke-linecap="round"/>
      <path fill="#ffffff" d="M75.09,56.01C74.76,53.91 72.67,52.2 70.03,52.04C67.28,51.86 64.9,53.43 64.44,55.62C65.72,57.13 67.49,58.16 69.61,58.29C71.91,58.42 73.79,57.49 75.09,56.01Z"/>
      <path fill="#fcd612" d="M74.16,72.65L81.4,71.89C81.79,71.85 82.06,72.13 81.93,72.44C81.32,73.94 79.62,75.11 77.71,75.31C75.8,75.51 74.15,74.69 73.61,73.32C73.49,73.03 73.77,72.69 74.16,72.65Z"/>
      <path fill="#fcd612" d="M86.79,71.33L94.02,70.57C94.41,70.53 94.68,70.81 94.55,71.12C93.94,72.62 92.25,73.78 90.33,73.98C88.42,74.18 86.77,73.37 86.23,71.99C86.12,71.71 86.4,71.37 86.79,71.33Z"/>
      <path fill="#fcd612" d="M80.35,77.21L87.59,76.45C87.98,76.4 88.24,76.68 88.12,76.99C87.51,78.49 85.81,79.66 83.9,79.86C81.98,80.06 80.33,79.24 79.79,77.87C79.68,77.58 79.96,77.25 80.35,77.21Z"/>
      <path fill="#ff7a00" d="M65.19,44.99C64.94,45.49 64.8,46.07 64.81,46.69L64.81,48.55C64.73,50.92 66.3,53.31 68.75,53.45C71.2,53.6 72.77,51.48 72.75,49.29L72.73,47.16C72.73,46.84 72.69,46.53 72.62,46.24L65.19,44.99Z"/>
      <path fill="#00000000" d="M78.27,45.44C78.27,45.44 77.91,46.79 76.19,46.97C74.46,47.14 61.72,44.5 61.72,44.5" stroke="#ff7a00" stroke-width="1.5975" stroke-linecap="round" stroke-linejoin="round"/>
      <path fill="#ff7a00" d="M97.54,81.96C98.04,81.55 98.52,81.15 98.99,80.78C94.5,87.37 84.96,93.22 75.53,93.55C66.16,93.88 56.3,88.6 52.53,83.1C52.8,83.07 53.07,83.03 53.35,82.99C56.86,82.49 59.78,81.47 62.25,80.22C66.22,84.31 72.16,87.78 80.21,88.07C89.81,88.41 94.05,84.88 97.54,81.96Z"/>
      <path fill="#ff8d07" d="M92.02,36.5L92.68,36.99C92.5,37.27 92.16,37.38 91.84,37.27C91.51,37.15 91.27,36.83 91.24,36.48L92.02,36.5ZM95.65,39.53L95.27,40.2L94.91,39.95L94.87,39.52L95.65,39.53ZM100.02,45.65L100.73,45.39L100.74,45.42L100.75,45.44L100.02,45.65ZM86.91,55.64L86.8,54.83L87.42,54.8L87.64,55.43L86.91,55.64ZM80.78,55.84L80.01,55.62L80.1,55.06L80.66,55.03L80.78,55.84ZM58.22,54.81L57.45,54.88L57.45,54.87L57.45,54.86L58.22,54.81ZM57.56,50.52L58.32,50.42L58.32,50.45L58.33,50.47L57.56,50.52ZM58.99,43.08L59.12,42.29L60.53,42.69L59.56,43.69L58.99,43.08ZM62.19,39.33L62.74,38.82L63.76,40L62.34,40.14L62.19,39.33ZM60.7,34.56L59.97,34.19L59.98,34.16L59.99,34.14L60.7,34.56ZM62.53,34.25L62.9,33.57L62.91,33.58L62.93,33.59L62.53,34.25ZM92.83,35.13L93.52,35.59L92.83,35.13ZM88.14,35.38C87.89,36.24 87.51,37.22 86.72,38.12C85.93,39.01 84.76,39.77 83,40.28L82.44,38.71C84,38.25 84.93,37.61 85.52,36.94C86.12,36.27 86.42,35.52 86.65,34.76L88.14,35.38ZM91.24,36.48C91.13,35.05 90.55,33.94 89.95,33.29C89.65,32.96 89.36,32.76 89.14,32.68C89.04,32.64 88.96,32.63 88.92,32.63C88.88,32.63 88.86,32.64 88.86,32.64L87.95,31.22C88.45,30.9 89.05,30.96 89.56,31.16C90.08,31.36 90.58,31.74 91.03,32.22C91.92,33.2 92.65,34.69 92.8,36.51L91.24,36.48ZM93.52,35.59C93.3,35.98 93.01,36.48 92.68,36.99L91.36,36C91.67,35.51 91.94,35.04 92.15,34.67L93.52,35.59ZM99.31,45.91C99,45.17 98.44,44.04 97.72,42.93C96.99,41.81 96.15,40.8 95.27,40.2L96.03,38.86C97.2,39.66 98.21,40.91 98.99,42.11C99.78,43.33 100.39,44.56 100.73,45.39L99.31,45.91ZM96.23,61.34C98.22,61.12 99.49,60.12 100.22,58.78C100.96,57.42 101.18,55.67 100.94,53.96L102.49,53.89C102.76,55.87 102.53,57.99 101.6,59.7C100.65,61.43 99,62.69 96.55,62.96L96.23,61.34ZM87.64,55.43C88.87,58.93 92.22,61.78 96.23,61.34L96.55,62.96C91.67,63.49 87.63,60.01 86.18,55.85L87.64,55.43ZM71.31,63.7C73.47,63.36 75.49,62.28 77.06,60.8C78.63,59.31 79.69,57.46 80.01,55.62L81.55,56.07C81.16,58.29 79.91,60.4 78.17,62.05C76.43,63.7 74.17,64.93 71.69,65.32L71.31,63.7ZM58.99,54.74C59.67,58.57 61.66,60.94 63.99,62.3C66.36,63.68 69.13,64.04 71.31,63.7L71.69,65.32C69.22,65.7 66.08,65.31 63.34,63.71C60.56,62.08 58.23,59.24 57.45,54.88L58.99,54.74ZM58.33,50.47L58.99,54.76L57.45,54.86L56.78,50.57L58.33,50.47ZM59.56,43.69C58.67,44.6 58.22,45.53 58.06,46.57C57.88,47.64 58,48.87 58.32,50.42L56.79,50.61C56.45,48.98 56.29,47.5 56.51,46.15C56.74,44.77 57.34,43.57 58.41,42.47L59.56,43.69ZM56.12,40.3C56.13,40.2 56.08,40.23 56.25,40.46C56.4,40.65 56.64,40.9 56.97,41.15C57.63,41.66 58.47,42.11 59.12,42.29L58.85,43.86C57.96,43.61 56.93,43.05 56.12,42.43C55.72,42.11 55.34,41.76 55.05,41.38C54.79,41.03 54.5,40.51 54.57,39.94L56.12,40.3ZM58.7,40.16C57.75,40.14 57.06,40.1 56.54,40.17C56.29,40.21 56.18,40.26 56.13,40.29C56.11,40.3 56.12,40.29 56.12,40.3L54.57,39.94C54.62,39.47 54.85,39.12 55.18,38.9C55.49,38.69 55.85,38.6 56.19,38.56C56.84,38.47 57.73,38.51 58.56,38.52L58.7,40.16ZM62.34,40.14C61.04,40.27 60.41,40.18 58.7,40.16L58.56,38.52C60.41,38.55 60.85,38.63 62.04,38.51L62.34,40.14ZM61.43,34.94C61,36.02 61.44,37.3 62.74,38.82L61.63,39.84C60.19,38.16 59.19,36.16 59.97,34.19L61.43,34.94ZM62.17,34.93C61.9,34.76 61.73,34.74 61.65,34.76C61.58,34.77 61.49,34.8 61.41,34.98L59.99,34.14C60.25,33.6 60.69,33.24 61.26,33.14C61.81,33.05 62.39,33.24 62.9,33.57L62.17,34.93ZM68.37,38.18C66.16,37.19 64.62,36.38 63.62,35.81C63.12,35.53 62.76,35.31 62.52,35.16C62.39,35.08 62.3,35.02 62.24,34.98C62.21,34.96 62.19,34.94 62.17,34.93C62.16,34.93 62.16,34.92 62.15,34.92C62.15,34.92 62.15,34.91 62.14,34.91C62.14,34.91 62.14,34.91 62.14,34.91C62.14,34.91 62.14,34.91 62.14,34.91C62.14,34.91 62.14,34.91 62.14,34.91C62.14,34.91 62.14,34.91 62.53,34.25C62.93,33.59 62.93,33.59 62.93,33.59C62.93,33.59 62.93,33.59 62.93,33.59C62.93,33.59 62.93,33.59 62.93,33.59C62.93,33.59 62.93,33.59 62.93,33.59C62.93,33.59 62.93,33.59 62.93,33.59C62.93,33.59 62.93,33.59 62.94,33.6C62.95,33.61 62.96,33.62 62.99,33.63C63.04,33.67 63.12,33.72 63.22,33.79C63.44,33.92 63.78,34.13 64.25,34.4C65.2,34.93 66.7,35.72 68.86,36.69L68.37,38.18ZM83,40.28C81.19,40.81 78.63,40.77 76.03,40.38C73.4,39.98 70.63,39.2 68.37,38.18L68.86,36.69C70.96,37.64 73.59,38.38 76.1,38.76C78.62,39.15 80.93,39.15 82.44,38.71L83,40.28ZM88.86,32.64C88.7,32.74 88.63,32.83 88.59,32.9C88.55,32.99 88.51,33.1 88.48,33.32C88.43,33.71 88.41,34.48 88.14,35.38L86.65,34.76C86.86,34.01 86.85,33.54 86.93,32.93C86.97,32.64 87.04,32.32 87.2,32.01C87.37,31.69 87.62,31.43 87.95,31.22L88.86,32.64ZM100.94,53.96C100.44,50.25 100.23,48.53 99.29,45.87L100.75,45.44C101.76,48.31 101.99,50.21 102.49,53.89L100.94,53.96ZM80.66,55.03C81.68,54.98 82.72,54.95 83.74,54.92C84.78,54.9 85.8,54.87 86.8,54.83L87.02,56.45C86,56.5 84.97,56.53 83.94,56.55C82.91,56.58 81.89,56.61 80.89,56.66L80.66,55.03ZM94.87,39.52C94.83,39.04 94.59,38.35 94.23,37.57C93.88,36.82 93.45,36.09 93.13,35.55L94.42,34.78C94.77,35.35 95.23,36.15 95.62,36.98C96,37.79 96.36,38.73 96.43,39.54L94.87,39.52ZM92.15,34.67C92.6,33.85 93.84,33.81 94.42,34.78L93.13,35.55C93.18,35.64 93.27,35.68 93.35,35.68C93.42,35.69 93.48,35.65 93.52,35.59L92.15,34.67Z"/>
      <path fill="#ff7a00" d="M79.99,55.6C80.46,53.64 82.47,52.25 84.48,52.51C86.48,52.77 87.73,54.58 87.25,56.54C87.25,56.54 86.47,59.44 85.83,61.45C85.18,63.45 83.62,65.06 81.48,64.98C79.34,64.89 78.23,62.91 78.7,60.95L79.99,55.6Z"/>
      <path fill="#ff7a00" d="M84.67,51.01C82.18,50.79 79.37,53.66 79.42,56.31L85.38,56.99L88.06,55.52C88.5,53.71 87.16,51.24 84.67,51.01Z"/>
      <path fill="#ffca01" d="M84.38,61.36C84.17,62.97 82.64,63.76 81.41,63.46C80.18,63.16 79.5,62.06 80.02,60.09C80.54,58.12 81.05,57.29 82.34,57.81C83.63,58.34 84.59,59.75 84.38,61.36Z"/>
      <path fill="#fff980" d="M84.67,51.01C82.18,50.79 79.36,53.66 79.42,56.31C79.42,56.31 82.85,53.79 86.1,52.66C85.85,51.34 84.67,51.01 84.67,51.01Z"/>
      <path fill="#00000000" d="M69.21,80.55C70.04,79 70.77,76.41 71.04,74.62" stroke="#ff7a00" stroke-width="7.4551" stroke-linecap="round"/>
      <path fill="#fdb718" d="M71.93,75.03C71.54,76.48 70.55,77.09 69.56,76.84C68.57,76.59 67.89,75.78 68.33,74.12C68.78,72.47 69.71,72.07 70.7,72.32C71.7,72.57 72.32,73.59 71.93,75.03Z"/>
      <path fill="#fff980" d="M77.31,40.36C76.36,43.26 71.25,43.23 64.08,41.16C56.91,39.09 52.77,36.07 53.72,33.17C54.67,30.26 60.36,29.94 66.81,32.04C73.26,34.15 78.26,37.46 77.31,40.36Z"/>
      <path fill="#fcc414" d="M77.24,40.54C77.27,40.48 77.29,40.42 77.31,40.36C77.46,39.89 77.46,39.41 77.32,38.92C76.92,38.88 76.51,38.83 76.09,38.76C73.59,38.38 70.96,37.64 68.86,36.69C66.7,35.72 65.2,34.93 64.25,34.4C63.78,34.13 63.44,33.92 63.22,33.79C63.11,33.72 63.04,33.67 62.99,33.63C62.96,33.62 62.95,33.6 62.93,33.6L62.92,33.59L62.92,33.59L62.91,33.58L62.9,33.57C62.39,33.24 61.81,33.05 61.26,33.14C60.68,33.23 60.25,33.6 59.99,34.14L59.98,34.16L59.97,34.19C59.38,35.68 59.81,37.2 60.68,38.57C60.47,38.57 60.24,38.56 59.97,38.56C59.6,38.55 59.15,38.53 58.56,38.52C58.38,38.52 58.2,38.52 58.02,38.51C57.82,38.51 57.62,38.51 57.43,38.5C58.48,39.1 59.73,39.68 61.16,40.21C61.52,40.2 61.89,40.18 62.34,40.14L63.76,40L62.74,38.82C61.44,37.31 61,36.04 61.42,34.96C61.5,34.8 61.58,34.76 61.65,34.75C61.73,34.74 61.9,34.76 62.16,34.92L62.17,34.93C62.19,34.94 62.21,34.96 62.24,34.98C62.3,35.02 62.39,35.08 62.51,35.16C62.76,35.31 63.12,35.53 63.62,35.81C64.62,36.38 66.16,37.19 68.36,38.18C70.63,39.2 73.4,39.98 76.02,40.38C76.43,40.44 76.84,40.49 77.24,40.54Z"/>
   </g>
</svg>